<svg width="1440" height="665" viewBox="0 0 1440 665" fill="none" xmlns="http://www.w3.org/2000/svg">
<g clip-path="url(#clip0_3001_2879)">
<rect width="1440" height="665" fill="url(#paint0_linear_3001_2879)"/>
<rect x="-34" y="-83.2917" width="106.857" height="106.857" fill="url(#paint1_linear_3001_2879)" fill-opacity="0.08" stroke="white" stroke-opacity="0.12" stroke-width="0.890476"/>
<rect x="72.8571" y="-83.2917" width="106.857" height="106.857" stroke="white" stroke-opacity="0.12" stroke-width="0.890476"/>
<rect x="179.714" y="-83.2917" width="106.857" height="106.857" stroke="white" stroke-opacity="0.12" stroke-width="0.890476"/>
<rect x="286.571" y="-83.2917" width="106.857" height="106.857" stroke="white" stroke-opacity="0.12" stroke-width="0.890476"/>
<rect x="393.429" y="-83.2917" width="106.857" height="106.857" stroke="white" stroke-opacity="0.12" stroke-width="0.890476"/>
<rect x="500.286" y="-83.2917" width="106.857" height="106.857" stroke="white" stroke-opacity="0.12" stroke-width="0.890476"/>
<rect x="607.143" y="-83.2917" width="106.857" height="106.857" stroke="white" stroke-opacity="0.12" stroke-width="0.890476"/>
<rect x="714" y="-83.2917" width="106.857" height="106.857" stroke="white" stroke-opacity="0.12" stroke-width="0.890476"/>
<rect x="820.857" y="-83.2917" width="106.857" height="106.857" stroke="white" stroke-opacity="0.12" stroke-width="0.890476"/>
<rect x="927.715" y="-83.2917" width="106.857" height="106.857" stroke="white" stroke-opacity="0.12" stroke-width="0.890476"/>
<rect x="1034.57" y="-83.2917" width="106.857" height="106.857" stroke="white" stroke-opacity="0.12" stroke-width="0.890476"/>
<rect x="1141.43" y="-83.2917" width="106.857" height="106.857" stroke="white" stroke-opacity="0.12" stroke-width="0.890476"/>
<rect x="1248.29" y="-83.2917" width="106.857" height="106.857" stroke="white" stroke-opacity="0.12" stroke-width="0.890476"/>
<rect x="1355.14" y="-83.2917" width="106.857" height="106.857" stroke="white" stroke-opacity="0.12" stroke-width="0.890476"/>
<rect x="-34" y="23.5654" width="106.857" height="106.857" stroke="white" stroke-opacity="0.12" stroke-width="0.890476"/>
<rect x="72.8571" y="23.5654" width="106.857" height="106.857" stroke="white" stroke-opacity="0.12" stroke-width="0.890476"/>
<rect x="179.714" y="23.5654" width="106.857" height="106.857" stroke="white" stroke-opacity="0.12" stroke-width="0.890476"/>
<rect x="286.571" y="23.5654" width="106.857" height="106.857" stroke="white" stroke-opacity="0.12" stroke-width="0.890476"/>
<rect x="393.429" y="23.5654" width="106.857" height="106.857" stroke="white" stroke-opacity="0.12" stroke-width="0.890476"/>
<rect x="500.286" y="23.5654" width="106.857" height="106.857" stroke="white" stroke-opacity="0.12" stroke-width="0.890476"/>
<rect x="607.143" y="23.5654" width="106.857" height="106.857" stroke="white" stroke-opacity="0.12" stroke-width="0.890476"/>
<rect x="714" y="23.5654" width="106.857" height="106.857" stroke="white" stroke-opacity="0.12" stroke-width="0.890476"/>
<rect x="820.857" y="23.5654" width="106.857" height="106.857" stroke="white" stroke-opacity="0.12" stroke-width="0.890476"/>
<rect x="927.715" y="23.5654" width="106.857" height="106.857" stroke="white" stroke-opacity="0.12" stroke-width="0.890476"/>
<rect x="1034.57" y="23.5654" width="106.857" height="106.857" stroke="white" stroke-opacity="0.12" stroke-width="0.890476"/>
<rect x="1141.43" y="23.5654" width="106.857" height="106.857" stroke="white" stroke-opacity="0.12" stroke-width="0.890476"/>
<rect x="1248.29" y="23.5654" width="106.857" height="106.857" stroke="white" stroke-opacity="0.12" stroke-width="0.890476"/>
<rect x="1355.14" y="23.5654" width="106.857" height="106.857" fill="url(#paint2_linear_3001_2879)" fill-opacity="0.08" stroke="white" stroke-opacity="0.12" stroke-width="0.890476"/>
<rect x="-34" y="130.423" width="106.857" height="106.857" stroke="white" stroke-opacity="0.12" stroke-width="0.890476"/>
<rect x="72.8571" y="130.423" width="106.857" height="106.857" stroke="white" stroke-opacity="0.12" stroke-width="0.890476"/>
<rect x="179.714" y="130.423" width="106.857" height="106.857" stroke="white" stroke-opacity="0.12" stroke-width="0.890476"/>
<rect x="286.571" y="130.423" width="106.857" height="106.857" fill="url(#paint3_linear_3001_2879)" fill-opacity="0.08" stroke="white" stroke-opacity="0.12" stroke-width="0.890476"/>
<rect x="393.429" y="130.423" width="106.857" height="106.857" stroke="white" stroke-opacity="0.12" stroke-width="0.890476"/>
<rect x="500.286" y="130.423" width="106.857" height="106.857" stroke="white" stroke-opacity="0.12" stroke-width="0.890476"/>
<rect x="607.143" y="130.423" width="106.857" height="106.857" stroke="white" stroke-opacity="0.12" stroke-width="0.890476"/>
<rect x="714" y="130.423" width="106.857" height="106.857" stroke="white" stroke-opacity="0.12" stroke-width="0.890476"/>
<rect x="820.857" y="130.423" width="106.857" height="106.857" stroke="white" stroke-opacity="0.12" stroke-width="0.890476"/>
<rect x="927.714" y="130.423" width="106.857" height="106.857" stroke="white" stroke-opacity="0.12" stroke-width="0.890476"/>
<rect x="1034.57" y="130.423" width="106.857" height="106.857" fill="url(#paint4_linear_3001_2879)" fill-opacity="0.08" stroke="white" stroke-opacity="0.12" stroke-width="0.890476"/>
<rect x="1141.43" y="130.423" width="106.857" height="106.857" stroke="white" stroke-opacity="0.12" stroke-width="0.890476"/>
<rect x="1248.29" y="130.423" width="106.857" height="106.857" stroke="white" stroke-opacity="0.12" stroke-width="0.890476"/>
<rect x="1355.14" y="130.423" width="106.857" height="106.857" stroke="white" stroke-opacity="0.12" stroke-width="0.890476"/>
<rect x="-34" y="237.28" width="106.857" height="106.857" stroke="white" stroke-opacity="0.12" stroke-width="0.890476"/>
<rect x="72.8571" y="237.28" width="106.857" height="106.857" stroke="white" stroke-opacity="0.12" stroke-width="0.890476"/>
<rect x="179.714" y="237.28" width="106.857" height="106.857" stroke="white" stroke-opacity="0.12" stroke-width="0.890476"/>
<rect x="286.571" y="237.28" width="106.857" height="106.857" stroke="white" stroke-opacity="0.12" stroke-width="0.890476"/>
<rect x="393.429" y="237.28" width="106.857" height="106.857" stroke="white" stroke-opacity="0.12" stroke-width="0.890476"/>
<rect x="500.286" y="237.28" width="106.857" height="106.857" stroke="white" stroke-opacity="0.12" stroke-width="0.890476"/>
<rect x="607.143" y="237.28" width="106.857" height="106.857" stroke="white" stroke-opacity="0.12" stroke-width="0.890476"/>
<rect x="714" y="237.28" width="106.857" height="106.857" stroke="white" stroke-opacity="0.12" stroke-width="0.890476"/>
<rect x="820.857" y="237.28" width="106.857" height="106.857" stroke="white" stroke-opacity="0.12" stroke-width="0.890476"/>
<rect x="927.715" y="237.28" width="106.857" height="106.857" stroke="white" stroke-opacity="0.12" stroke-width="0.890476"/>
<rect x="1034.57" y="237.28" width="106.857" height="106.857" stroke="white" stroke-opacity="0.12" stroke-width="0.890476"/>
<rect x="1141.43" y="237.28" width="106.857" height="106.857" stroke="white" stroke-opacity="0.12" stroke-width="0.890476"/>
<rect x="1248.29" y="237.28" width="106.857" height="106.857" stroke="white" stroke-opacity="0.12" stroke-width="0.890476"/>
<rect x="1355.14" y="237.28" width="106.857" height="106.857" stroke="white" stroke-opacity="0.12" stroke-width="0.890476"/>
<rect x="-34" y="344.137" width="106.857" height="106.857" fill="url(#paint5_linear_3001_2879)" fill-opacity="0.08" stroke="white" stroke-opacity="0.12" stroke-width="0.890476"/>
<rect x="72.8571" y="344.137" width="106.857" height="106.857" stroke="white" stroke-opacity="0.12" stroke-width="0.890476"/>
<rect x="179.714" y="344.137" width="106.857" height="106.857" stroke="white" stroke-opacity="0.12" stroke-width="0.890476"/>
<rect x="286.571" y="344.137" width="106.857" height="106.857" stroke="white" stroke-opacity="0.12" stroke-width="0.890476"/>
<rect x="393.429" y="344.137" width="106.857" height="106.857" stroke="white" stroke-opacity="0.12" stroke-width="0.890476"/>
<rect x="500.286" y="344.137" width="106.857" height="106.857" stroke="white" stroke-opacity="0.12" stroke-width="0.890476"/>
<rect x="607.143" y="344.137" width="106.857" height="106.857" stroke="white" stroke-opacity="0.12" stroke-width="0.890476"/>
<rect x="714" y="344.137" width="106.857" height="106.857" stroke="white" stroke-opacity="0.12" stroke-width="0.890476"/>
<rect x="820.857" y="344.137" width="106.857" height="106.857" stroke="white" stroke-opacity="0.12" stroke-width="0.890476"/>
<rect x="927.715" y="344.137" width="106.857" height="106.857" stroke="white" stroke-opacity="0.12" stroke-width="0.890476"/>
<rect x="1034.57" y="344.137" width="106.857" height="106.857" stroke="white" stroke-opacity="0.12" stroke-width="0.890476"/>
<rect x="1141.43" y="344.137" width="106.857" height="106.857" stroke="white" stroke-opacity="0.12" stroke-width="0.890476"/>
<rect x="1248.29" y="344.137" width="106.857" height="106.857" fill="url(#paint6_linear_3001_2879)" fill-opacity="0.08" stroke="white" stroke-opacity="0.12" stroke-width="0.890476"/>
<rect x="1355.14" y="344.137" width="106.857" height="106.857" stroke="white" stroke-opacity="0.12" stroke-width="0.890476"/>
<rect x="-34" y="450.994" width="106.857" height="106.857" stroke="white" stroke-opacity="0.12" stroke-width="0.890476"/>
<rect x="72.8571" y="450.994" width="106.857" height="106.857" stroke="white" stroke-opacity="0.12" stroke-width="0.890476"/>
<rect x="179.714" y="450.994" width="106.857" height="106.857" fill="url(#paint7_linear_3001_2879)" fill-opacity="0.08" stroke="white" stroke-opacity="0.12" stroke-width="0.890476"/>
<rect x="286.571" y="450.994" width="106.857" height="106.857" stroke="white" stroke-opacity="0.12" stroke-width="0.890476"/>
<rect x="393.429" y="450.994" width="106.857" height="106.857" stroke="white" stroke-opacity="0.12" stroke-width="0.890476"/>
<rect x="500.286" y="450.994" width="106.857" height="106.857" stroke="white" stroke-opacity="0.12" stroke-width="0.890476"/>
<rect x="607.143" y="450.994" width="106.857" height="106.857" stroke="white" stroke-opacity="0.12" stroke-width="0.890476"/>
<rect x="714" y="450.994" width="106.857" height="106.857" stroke="white" stroke-opacity="0.12" stroke-width="0.890476"/>
<rect x="820.857" y="450.994" width="106.857" height="106.857" stroke="white" stroke-opacity="0.12" stroke-width="0.890476"/>
<rect x="927.715" y="450.994" width="106.857" height="106.857" fill="url(#paint8_linear_3001_2879)" fill-opacity="0.08" stroke="white" stroke-opacity="0.12" stroke-width="0.890476"/>
<rect x="1034.57" y="450.994" width="106.857" height="106.857" stroke="white" stroke-opacity="0.12" stroke-width="0.890476"/>
<rect x="1141.43" y="450.994" width="106.857" height="106.857" stroke="white" stroke-opacity="0.12" stroke-width="0.890476"/>
<rect x="1248.29" y="450.994" width="106.857" height="106.857" stroke="white" stroke-opacity="0.12" stroke-width="0.890476"/>
<rect x="1355.14" y="450.994" width="106.857" height="106.857" stroke="white" stroke-opacity="0.12" stroke-width="0.890476"/>
<rect x="-34" y="557.851" width="106.857" height="106.857" stroke="white" stroke-opacity="0.12" stroke-width="0.890476"/>
<rect x="72.8571" y="557.851" width="106.857" height="106.857" stroke="white" stroke-opacity="0.12" stroke-width="0.890476"/>
<rect x="179.714" y="557.851" width="106.857" height="106.857" stroke="white" stroke-opacity="0.12" stroke-width="0.890476"/>
<rect x="286.571" y="557.851" width="106.857" height="106.857" stroke="white" stroke-opacity="0.12" stroke-width="0.890476"/>
<rect x="393.429" y="557.851" width="106.857" height="106.857" fill="url(#paint9_linear_3001_2879)" fill-opacity="0.08" stroke="white" stroke-opacity="0.12" stroke-width="0.890476"/>
<rect x="500.286" y="557.851" width="106.857" height="106.857" stroke="white" stroke-opacity="0.12" stroke-width="0.890476"/>
<rect x="607.143" y="557.851" width="106.857" height="106.857" stroke="white" stroke-opacity="0.12" stroke-width="0.890476"/>
<rect x="714" y="557.851" width="106.857" height="106.857" fill="url(#paint10_linear_3001_2879)" fill-opacity="0.08" stroke="white" stroke-opacity="0.12" stroke-width="0.890476"/>
<rect x="820.857" y="557.851" width="106.857" height="106.857" stroke="white" stroke-opacity="0.12" stroke-width="0.890476"/>
<rect x="927.715" y="557.851" width="106.857" height="106.857" stroke="white" stroke-opacity="0.12" stroke-width="0.890476"/>
<rect x="1034.57" y="557.851" width="106.857" height="106.857" stroke="white" stroke-opacity="0.12" stroke-width="0.890476"/>
<rect x="1141.43" y="557.851" width="106.857" height="106.857" stroke="white" stroke-opacity="0.12" stroke-width="0.890476"/>
<rect x="1248.29" y="557.851" width="106.857" height="106.857" stroke="white" stroke-opacity="0.12" stroke-width="0.890476"/>
<rect x="1355.14" y="557.851" width="106.857" height="106.857" stroke="white" stroke-opacity="0.12" stroke-width="0.890476"/>
</g>
<defs>
<linearGradient id="paint0_linear_3001_2879" x1="720" y1="0" x2="720" y2="665" gradientUnits="userSpaceOnUse">
<stop stop-color="#C6E3F0"/>
<stop offset="1" stop-color="#006CCA"/>
</linearGradient>
<linearGradient id="paint1_linear_3001_2879" x1="19.4286" y1="-83.2917" x2="19.4286" y2="23.5654" gradientUnits="userSpaceOnUse">
<stop stop-color="white"/>
<stop offset="1" stop-color="white" stop-opacity="0.6"/>
</linearGradient>
<linearGradient id="paint2_linear_3001_2879" x1="1408.57" y1="23.5654" x2="1408.57" y2="130.423" gradientUnits="userSpaceOnUse">
<stop stop-color="white"/>
<stop offset="1" stop-color="white" stop-opacity="0.6"/>
</linearGradient>
<linearGradient id="paint3_linear_3001_2879" x1="340" y1="130.423" x2="340" y2="237.28" gradientUnits="userSpaceOnUse">
<stop stop-color="white"/>
<stop offset="1" stop-color="white" stop-opacity="0.6"/>
</linearGradient>
<linearGradient id="paint4_linear_3001_2879" x1="1088" y1="130.423" x2="1088" y2="237.28" gradientUnits="userSpaceOnUse">
<stop stop-color="white"/>
<stop offset="1" stop-color="white" stop-opacity="0.6"/>
</linearGradient>
<linearGradient id="paint5_linear_3001_2879" x1="19.4286" y1="344.137" x2="19.4286" y2="450.994" gradientUnits="userSpaceOnUse">
<stop stop-color="white"/>
<stop offset="1" stop-color="white" stop-opacity="0.6"/>
</linearGradient>
<linearGradient id="paint6_linear_3001_2879" x1="1301.71" y1="344.137" x2="1301.71" y2="450.994" gradientUnits="userSpaceOnUse">
<stop stop-color="white"/>
<stop offset="1" stop-color="white" stop-opacity="0.6"/>
</linearGradient>
<linearGradient id="paint7_linear_3001_2879" x1="233.143" y1="450.994" x2="233.143" y2="557.851" gradientUnits="userSpaceOnUse">
<stop stop-color="white"/>
<stop offset="1" stop-color="white" stop-opacity="0.6"/>
</linearGradient>
<linearGradient id="paint8_linear_3001_2879" x1="981.143" y1="450.994" x2="981.143" y2="557.851" gradientUnits="userSpaceOnUse">
<stop stop-color="white"/>
<stop offset="1" stop-color="white" stop-opacity="0.6"/>
</linearGradient>
<linearGradient id="paint9_linear_3001_2879" x1="446.857" y1="557.851" x2="446.857" y2="664.708" gradientUnits="userSpaceOnUse">
<stop stop-color="white"/>
<stop offset="1" stop-color="white" stop-opacity="0.6"/>
</linearGradient>
<linearGradient id="paint10_linear_3001_2879" x1="767.429" y1="557.851" x2="767.429" y2="664.708" gradientUnits="userSpaceOnUse">
<stop stop-color="white"/>
<stop offset="1" stop-color="white" stop-opacity="0.6"/>
</linearGradient>
<clipPath id="clip0_3001_2879">
<rect width="1440" height="665" fill="white"/>
</clipPath>
</defs>
</svg>
