<svg width="389" height="432" viewBox="0 0 389 432" fill="none" xmlns="http://www.w3.org/2000/svg">
<path d="M352.129 421.5V167.875M36.3791 167.875V378.5L220.567 421.5V227.078C220.567 221.844 222.646 216.825 226.347 213.124C230.048 209.423 235.067 207.344 240.301 207.344H292.926C298.16 207.344 303.179 209.423 306.88 213.124C310.581 216.825 312.66 221.844 312.66 227.078V421.5M298.246 10H90.2621C72.345 10 56.1628 19.8672 49.2064 35.0462L13.6023 112.783C1.61368 138.939 21.5207 168.574 52.405 169.52H54.0496C79.8687 169.52 100.795 148.815 100.795 126.573C100.795 148.774 121.73 169.52 147.549 169.52C173.369 169.52 194.254 150.295 194.254 126.573C194.254 148.774 215.181 169.52 241 169.52C266.819 169.52 287.754 150.295 287.754 126.573C287.754 150.295 308.681 169.52 334.5 169.52H336.103C366.987 168.557 386.894 138.923 374.906 112.783L339.302 35.0462C332.345 19.8672 316.163 10 298.246 10ZM95.5822 207.344H161.363C166.597 207.344 171.617 209.423 175.318 213.124C179.019 216.825 181.098 221.844 181.098 227.078V299.437H75.8478V227.078C75.8478 221.844 77.927 216.825 81.6279 213.124C85.3288 209.423 90.3483 207.344 95.5822 207.344Z" stroke="white" stroke-width="20" stroke-linecap="round" stroke-linejoin="round"/>
</svg>
