<svg width="35" height="35" viewBox="0 0 35 35" fill="none" xmlns="http://www.w3.org/2000/svg">
<path d="M0.74696 17.2906C0.746074 20.2313 1.52048 23.1026 2.99291 25.6334L0.606079 34.2807L9.52447 31.9603C11.9815 33.2891 14.7481 33.9905 17.5636 33.9912H17.571C26.8426 33.9912 34.3899 26.5051 34.3938 17.3038C34.3956 12.8449 32.6472 8.65233 29.4708 5.49803C26.2948 2.34389 22.0709 0.605938 17.5703 0.604004C8.29766 0.604004 0.750859 8.08966 0.74696 17.2906Z" fill="url(#paint0_linear_417_670)"/>
<path d="M0.146375 17.2851C0.145311 20.3316 0.947536 23.3057 2.47242 25.9271L0 34.8843L9.23825 32.4808C11.7837 33.8579 14.6495 34.584 17.5658 34.585H17.5733C27.1775 34.585 34.9959 26.8296 35 17.299C35.0016 12.68 33.1903 8.3367 29.9005 5.06933C26.61 1.80231 22.2349 0.00193419 17.5733 0C7.96731 0 0.150273 7.75416 0.146375 17.2851ZM5.64783 25.4757L5.30298 24.9324C3.85288 22.6446 3.08751 20.0009 3.08857 17.2862C3.09176 9.36446 9.58913 2.91957 17.5788 2.91957C21.4478 2.92115 25.0841 4.41768 27.819 7.13311C30.5538 9.84871 32.0587 13.4586 32.0576 17.298C32.0541 25.2199 25.5565 31.6656 17.5733 31.6656H17.5676C14.9681 31.6642 12.4188 30.9716 10.1954 29.6627L9.66621 29.3513L4.18408 30.7775L5.64783 25.4757Z" fill="url(#paint1_linear_417_670)"/>
<path d="M13.2177 10.0589C12.8915 9.33937 12.5482 9.32495 12.2379 9.31229C11.984 9.30156 11.6935 9.30226 11.4034 9.30226C11.113 9.30226 10.6413 9.41058 10.2424 9.84278C9.84312 10.2752 8.7182 11.3203 8.7182 13.446C8.7182 15.5718 10.2787 17.6259 10.4961 17.9145C10.7139 18.2025 13.5085 22.7042 17.9343 24.436C21.6126 25.8753 22.3612 25.589 23.1595 25.5169C23.9578 25.445 25.7358 24.4721 26.0985 23.4632C26.4614 22.4544 26.4614 21.5896 26.3526 21.409C26.2438 21.229 25.9534 21.1208 25.518 20.9049C25.0824 20.6888 22.9417 19.6435 22.5426 19.4993C22.1434 19.3553 21.8531 19.2834 21.5627 19.7159C21.2724 20.148 20.4384 21.1208 20.1843 21.409C19.9304 21.6978 19.6763 21.7338 19.2409 21.5177C18.8053 21.3009 17.4029 20.8451 15.7392 19.3734C14.4447 18.2282 13.5709 16.8139 13.3168 16.3814C13.0628 15.9494 13.2897 15.7153 13.508 15.4999C13.7036 15.3063 13.9436 14.9955 14.1613 14.7433C14.3786 14.491 14.4511 14.3109 14.5962 14.0227C14.7415 13.7344 14.6689 13.482 14.5601 13.2659C14.4511 13.0498 13.6049 10.9133 13.2177 10.0589Z" fill="white"/>
<defs>
<linearGradient id="paint0_linear_417_670" x1="1689.99" y1="3368.28" x2="1689.99" y2="0.60561" gradientUnits="userSpaceOnUse">
<stop stop-color="#1FAF38"/>
<stop offset="1" stop-color="#60D669"/>
</linearGradient>
<linearGradient id="paint1_linear_417_670" x1="1750" y1="3488.43" x2="1750" y2="-0.0045744" gradientUnits="userSpaceOnUse">
<stop stop-color="#F9F9F9"/>
<stop offset="1" stop-color="white"/>
</linearGradient>
</defs>
</svg>
