<svg width="21" height="21" viewBox="0 0 21 21" fill="none" xmlns="http://www.w3.org/2000/svg">
<path d="M10.5 0C16.2992 0 21 4.70085 21 10.5C21 16.2991 16.2992 21 10.5 21C8.71287 21.0025 6.95491 20.547 5.39386 19.677L5.07361 19.4901L1.89001 20.4267C1.71676 20.4777 1.53335 20.4837 1.35715 20.444C1.18095 20.4043 1.01782 20.3203 0.883202 20.1998C0.748588 20.0794 0.646959 19.9266 0.587948 19.7559C0.528938 19.5852 0.514502 19.4023 0.546008 19.2244L0.573308 19.11L1.50991 15.9264C0.519815 14.2897 -0.00242806 12.4128 8.48699e-06 10.5C8.48699e-06 4.70085 4.70086 0 10.5 0ZM10.5 2.1C8.99601 2.09973 7.51954 2.50326 6.22475 3.26845C4.92997 4.03365 3.86438 5.13244 3.13926 6.45009C2.41414 7.76773 2.05608 9.25589 2.10248 10.7592C2.14889 12.2624 2.59805 13.7257 3.40306 14.9961C3.61096 15.3237 3.70021 15.7269 3.62986 16.1269L3.58891 16.2981L3.12586 17.8741L4.70191 17.4111C5.15656 17.2767 5.62906 17.3586 6.00391 17.5969C7.10465 18.2939 8.35243 18.7253 9.64861 18.857C10.9448 18.9887 12.2538 18.817 13.4722 18.3557C14.6907 17.8943 15.7851 17.1558 16.6689 16.1986C17.5528 15.2415 18.2019 14.0918 18.5649 12.8406C18.9279 11.5893 18.9949 10.2708 18.7606 8.98916C18.5263 7.70756 17.997 6.49803 17.2147 5.45619C16.4324 4.41436 15.4185 3.56877 14.2531 2.98628C13.0878 2.4038 11.8029 2.10037 10.5 2.1ZM7.45711 5.4432C7.57347 5.39337 7.70072 5.37444 7.82655 5.38823C7.95238 5.40203 8.07251 5.44809 8.17531 5.52195C8.70451 5.90835 9.1245 6.42705 9.4857 6.93315L9.82905 7.43085L9.9897 7.6671C10.0827 7.8025 10.1284 7.96485 10.1197 8.1289C10.111 8.29296 10.0483 8.44953 9.9414 8.5743L9.86265 8.6541L8.89245 9.3744C8.84629 9.40863 8.81385 9.4582 8.80095 9.5142C8.78806 9.57021 8.79556 9.62898 8.82211 9.67995C9.0426 10.0789 9.43215 10.6743 9.87945 11.1216C10.3278 11.5689 10.9505 11.9847 11.3768 12.2293C11.4692 12.2818 11.5805 12.265 11.6561 12.1968L11.696 12.1495L12.327 11.1888C12.4427 11.0342 12.6138 10.9306 12.8043 10.8997C12.9949 10.8687 13.19 10.9129 13.3487 11.0229L13.9188 11.4208C14.4858 11.8251 15.0308 12.2598 15.4623 12.811C15.5421 12.9146 15.5929 13.0377 15.6093 13.1674C15.6258 13.2972 15.6073 13.429 15.5558 13.5492C15.14 14.5194 14.0868 15.3457 12.9927 15.3058L12.8258 15.2953L12.6252 15.2764L12.5118 15.2617L12.2619 15.2197C11.2917 15.037 9.73665 14.4868 8.12491 12.8761C6.51421 11.2644 5.96401 9.70935 5.78131 8.73915L5.73931 8.48925L5.71306 8.27085L5.69941 8.0871L5.69521 8.00835C5.65531 6.91215 6.48586 5.859 7.45711 5.4432Z" fill="#BDEE63"/>
</svg>
