<svg width="21" height="21" viewBox="0 0 21 21" fill="none" xmlns="http://www.w3.org/2000/svg">
<path fill-rule="evenodd" clip-rule="evenodd" d="M7.06413 2.51187C5.37815 3.2399 3.96471 4.48109 3.0249 6.05884H5.73052C5.94277 5.11858 6.22277 4.25419 6.55968 3.49503C6.70858 3.15779 6.87701 2.82951 7.06413 2.51187ZM1.80645 10.5C1.80645 9.8271 1.88323 9.17181 2.02774 8.54271H5.34529C5.28675 9.19349 5.25767 9.84659 5.25813 10.5C5.25813 11.1666 5.28748 11.821 5.34529 12.4564H2.02729C1.88003 11.8147 1.80594 11.1584 1.80645 10.5ZM3.02445 14.9403C3.96423 16.5184 5.37785 17.7599 7.06413 18.4881C6.87701 18.1705 6.70858 17.8422 6.55968 17.505C6.22232 16.7458 5.94277 15.881 5.73052 14.9403H3.02445ZM8.05497 14.9403C8.20068 15.5037 8.3908 16.0548 8.62355 16.5882C8.95729 17.3397 9.32536 17.8775 9.67761 18.2126C10.0235 18.5423 10.2995 18.629 10.4995 18.629C10.6996 18.629 10.976 18.5423 11.3224 18.2126C11.6742 17.8775 12.0427 17.3397 12.3765 16.5882C12.5919 16.1027 12.7838 15.5495 12.945 14.9403H8.05497ZM15.2695 14.9403C15.0572 15.881 14.7772 16.7458 14.4399 17.505C14.291 17.8422 14.1225 18.1705 13.9354 18.4881C15.6219 17.76 17.0357 16.5185 17.9755 14.9403H15.2695ZM18.9727 12.4564H15.6547C15.7132 11.8059 15.7423 11.1531 15.7419 10.5C15.7419 9.83297 15.7121 9.17858 15.6547 8.54271H18.9723C19.1168 9.17181 19.1935 9.8271 19.1935 10.5C19.1935 11.1729 19.1172 11.8277 18.9727 12.4564ZM13.3858 12.4564H7.61329C7.54804 11.8063 7.51563 11.1533 7.51619 10.5C7.51619 9.82258 7.55006 9.16774 7.61374 8.54271H13.3858C13.449 9.16774 13.4834 9.82303 13.4834 10.5C13.4834 11.177 13.4495 11.8314 13.3858 12.4564ZM15.269 6.05884H17.9746C17.0347 4.48101 15.6211 3.23982 13.935 2.51187C14.1183 2.82077 14.2863 3.1509 14.4394 3.49503C14.7768 4.25374 15.0568 5.11858 15.269 6.05884ZM8.62265 4.41181C8.38994 4.94495 8.19982 5.49568 8.05406 6.05884H12.9437C12.7981 5.49569 12.6081 4.94496 12.3755 4.41181C12.0414 3.66032 11.6733 3.12245 11.3215 2.78735C10.976 2.45768 10.7001 2.37097 10.5 2.37097C10.2999 2.37097 10.0235 2.45768 9.67761 2.78735C9.32536 3.12245 8.95639 3.66032 8.62265 4.41181ZM10.5 0C4.70129 0 0 4.70129 0 10.5C0 16.2987 4.70129 21 10.5 21C16.2987 21 21 16.2987 21 10.5C21 4.70129 16.2987 0 10.5 0Z" fill="#BDEE63"/>
</svg>
